<?xml version="1.0" encoding="utf-8" standalone="no"?>
<!DOCTYPE svg PUBLIC "-//W3C//DTD SVG 1.1//EN"
  "http://www.w3.org/Graphics/SVG/1.1/DTD/svg11.dtd">
<svg xmlns:xlink="http://www.w3.org/1999/xlink" width="460.8pt" height="345.6pt" viewBox="0 0 460.8 345.6" xmlns="http://www.w3.org/2000/svg" version="1.1">
 <metadata>
  <rdf:RDF xmlns:dc="http://purl.org/dc/elements/1.1/" xmlns:cc="http://creativecommons.org/ns#" xmlns:rdf="http://www.w3.org/1999/02/22-rdf-syntax-ns#">
   <cc:Work>
    <dc:type rdf:resource="http://purl.org/dc/dcmitype/StillImage"/>
    <dc:date>2023-04-11T10:05:35.062582</dc:date>
    <dc:format>image/svg+xml</dc:format>
    <dc:creator>
     <cc:Agent>
      <dc:title>Matplotlib v3.6.2, https://matplotlib.org/</dc:title>
     </cc:Agent>
    </dc:creator>
   </cc:Work>
  </rdf:RDF>
 </metadata>
 <defs>
  <style type="text/css">*{stroke-linejoin: round; stroke-linecap: butt}</style>
 </defs>
 <g id="figure_1">
  <g id="patch_1">
   <path d="M 0 345.6 
L 460.8 345.6 
L 460.8 0 
L 0 0 
z
" style="fill: #ffffff"/>
  </g>
  <g id="axes_1">
   <g id="patch_2">
    <path d="M 57.6 307.584 
L 414.72 307.584 
L 414.72 41.472 
L 57.6 41.472 
z
" style="fill: #ffffff"/>
   </g>
   <g id="matplotlib.axis_1">
    <g id="xtick_1">
     <g id="line2d_1">
      <defs>
       <path id="md00c3232dd" d="M 0 0 
L 0 3.5 
" style="stroke: #000000; stroke-width: 0.8"/>
      </defs>
      <g>
       <use xlink:href="#md00c3232dd" x="57.6" y="307.584" style="stroke: #000000; stroke-width: 0.8"/>
      </g>
     </g>
     <g id="text_1">
      <!-- 0 -->
      <g transform="translate(55.1 321.419937) scale(0.1 -0.1)">
       <defs>
        <path id="SimHei-30" d="M 2975 2250 
Q 2975 1350 2650 700 
Q 2325 50 1600 50 
Q 875 50 537 700 
Q 200 1350 200 2250 
Q 200 3150 537 3787 
Q 875 4425 1600 4425 
Q 2325 4425 2650 3787 
Q 2975 3150 2975 2250 
z
M 2375 2250 
Q 2375 3050 2187 3500 
Q 2000 3950 1600 3950 
Q 1200 3950 1000 3500 
Q 800 3050 800 2250 
Q 800 1450 1000 987 
Q 1200 525 1600 525 
Q 2000 525 2187 987 
Q 2375 1450 2375 2250 
z
" transform="scale(0.015625)"/>
       </defs>
       <use xlink:href="#SimHei-30"/>
      </g>
     </g>
    </g>
    <g id="xtick_2">
     <g id="line2d_2">
      <g>
       <use xlink:href="#md00c3232dd" x="91.708883" y="307.584" style="stroke: #000000; stroke-width: 0.8"/>
      </g>
     </g>
     <g id="text_2">
      <!-- 5 -->
      <g transform="translate(89.208883 321.419937) scale(0.1 -0.1)">
       <defs>
        <path id="SimHei-35" d="M 2825 1650 
Q 2825 900 2462 475 
Q 2100 50 1500 50 
Q 975 50 637 400 
Q 300 750 275 1350 
L 850 1350 
Q 850 975 1025 750 
Q 1200 525 1525 525 
Q 1850 525 2037 800 
Q 2225 1075 2225 1650 
Q 2225 2150 2062 2387 
Q 1900 2625 1625 2625 
Q 1400 2625 1237 2525 
Q 1075 2425 925 2175 
L 425 2175 
L 575 4375 
L 2725 4375 
L 2725 3900 
L 1050 3900 
L 950 2750 
Q 1100 2900 1275 2975 
Q 1450 3050 1750 3050 
Q 2225 3050 2525 2687 
Q 2825 2325 2825 1650 
z
" transform="scale(0.015625)"/>
       </defs>
       <use xlink:href="#SimHei-35"/>
      </g>
     </g>
    </g>
    <g id="xtick_3">
     <g id="line2d_3">
      <g>
       <use xlink:href="#md00c3232dd" x="125.817765" y="307.584" style="stroke: #000000; stroke-width: 0.8"/>
      </g>
     </g>
     <g id="text_3">
      <!-- 10 -->
      <g transform="translate(120.817765 321.419937) scale(0.1 -0.1)">
       <defs>
        <path id="SimHei-31" d="M 1950 100 
L 1375 100 
L 1375 3425 
L 625 3425 
L 625 3725 
Q 1075 3725 1325 3900 
Q 1575 4075 1650 4425 
L 1950 4425 
L 1950 100 
z
" transform="scale(0.015625)"/>
       </defs>
       <use xlink:href="#SimHei-31"/>
       <use xlink:href="#SimHei-30" x="50"/>
      </g>
     </g>
    </g>
    <g id="xtick_4">
     <g id="line2d_4">
      <g>
       <use xlink:href="#md00c3232dd" x="159.926648" y="307.584" style="stroke: #000000; stroke-width: 0.8"/>
      </g>
     </g>
     <g id="text_4">
      <!-- 15 -->
      <g transform="translate(154.926648 321.419937) scale(0.1 -0.1)">
       <use xlink:href="#SimHei-31"/>
       <use xlink:href="#SimHei-35" x="50"/>
      </g>
     </g>
    </g>
    <g id="xtick_5">
     <g id="line2d_5">
      <g>
       <use xlink:href="#md00c3232dd" x="194.03553" y="307.584" style="stroke: #000000; stroke-width: 0.8"/>
      </g>
     </g>
     <g id="text_5">
      <!-- 20 -->
      <g transform="translate(189.03553 321.419937) scale(0.1 -0.1)">
       <defs>
        <path id="SimHei-32" d="M 2850 100 
L 300 100 
L 300 500 
Q 450 900 712 1237 
Q 975 1575 1475 2000 
Q 1850 2325 2012 2600 
Q 2175 2875 2175 3200 
Q 2175 3525 2037 3737 
Q 1900 3950 1600 3950 
Q 1350 3950 1162 3725 
Q 975 3500 975 2925 
L 400 2925 
Q 425 3650 737 4037 
Q 1050 4425 1625 4425 
Q 2175 4425 2475 4087 
Q 2775 3750 2775 3175 
Q 2775 2700 2500 2350 
Q 2225 2000 1825 1650 
Q 1375 1250 1200 1050 
Q 1025 850 875 575 
L 2850 575 
L 2850 100 
z
" transform="scale(0.015625)"/>
       </defs>
       <use xlink:href="#SimHei-32"/>
       <use xlink:href="#SimHei-30" x="50"/>
      </g>
     </g>
    </g>
    <g id="xtick_6">
     <g id="line2d_6">
      <g>
       <use xlink:href="#md00c3232dd" x="228.144413" y="307.584" style="stroke: #000000; stroke-width: 0.8"/>
      </g>
     </g>
     <g id="text_6">
      <!-- 25 -->
      <g transform="translate(223.144413 321.419937) scale(0.1 -0.1)">
       <use xlink:href="#SimHei-32"/>
       <use xlink:href="#SimHei-35" x="50"/>
      </g>
     </g>
    </g>
    <g id="xtick_7">
     <g id="line2d_7">
      <g>
       <use xlink:href="#md00c3232dd" x="262.253295" y="307.584" style="stroke: #000000; stroke-width: 0.8"/>
      </g>
     </g>
     <g id="text_7">
      <!-- 30 -->
      <g transform="translate(257.253295 321.419937) scale(0.1 -0.1)">
       <defs>
        <path id="SimHei-33" d="M 2825 1300 
Q 2825 725 2462 387 
Q 2100 50 1550 50 
Q 1000 50 637 387 
Q 275 725 275 1425 
L 850 1425 
Q 850 950 1037 737 
Q 1225 525 1550 525 
Q 1875 525 2050 725 
Q 2225 925 2225 1350 
Q 2225 1700 2037 1900 
Q 1850 2100 1375 2100 
L 1375 2525 
Q 1775 2525 1962 2725 
Q 2150 2925 2150 3325 
Q 2150 3625 2012 3800 
Q 1875 3975 1575 3975 
Q 1275 3975 1112 3762 
Q 950 3550 925 3150 
L 375 3150 
Q 425 3725 737 4075 
Q 1050 4425 1575 4425 
Q 2125 4425 2425 4112 
Q 2725 3800 2725 3350 
Q 2725 2925 2575 2687 
Q 2425 2450 2075 2325 
Q 2425 2250 2625 1975 
Q 2825 1700 2825 1300 
z
" transform="scale(0.015625)"/>
       </defs>
       <use xlink:href="#SimHei-33"/>
       <use xlink:href="#SimHei-30" x="50"/>
      </g>
     </g>
    </g>
    <g id="xtick_8">
     <g id="line2d_8">
      <g>
       <use xlink:href="#md00c3232dd" x="296.362178" y="307.584" style="stroke: #000000; stroke-width: 0.8"/>
      </g>
     </g>
     <g id="text_8">
      <!-- 35 -->
      <g transform="translate(291.362178 321.419937) scale(0.1 -0.1)">
       <use xlink:href="#SimHei-33"/>
       <use xlink:href="#SimHei-35" x="50"/>
      </g>
     </g>
    </g>
    <g id="xtick_9">
     <g id="line2d_9">
      <g>
       <use xlink:href="#md00c3232dd" x="330.47106" y="307.584" style="stroke: #000000; stroke-width: 0.8"/>
      </g>
     </g>
     <g id="text_9">
      <!-- 40 -->
      <g transform="translate(325.47106 321.419937) scale(0.1 -0.1)">
       <defs>
        <path id="SimHei-34" d="M 2975 1200 
L 2450 1200 
L 2450 100 
L 1875 100 
L 1875 1200 
L 200 1200 
L 200 1675 
L 1875 4425 
L 2450 4425 
L 2450 1675 
L 2975 1675 
L 2975 1200 
z
M 1875 1675 
L 1875 3525 
L 750 1675 
L 1875 1675 
z
" transform="scale(0.015625)"/>
       </defs>
       <use xlink:href="#SimHei-34"/>
       <use xlink:href="#SimHei-30" x="50"/>
      </g>
     </g>
    </g>
    <g id="xtick_10">
     <g id="line2d_10">
      <g>
       <use xlink:href="#md00c3232dd" x="364.579943" y="307.584" style="stroke: #000000; stroke-width: 0.8"/>
      </g>
     </g>
     <g id="text_10">
      <!-- 45 -->
      <g transform="translate(359.579943 321.419937) scale(0.1 -0.1)">
       <use xlink:href="#SimHei-34"/>
       <use xlink:href="#SimHei-35" x="50"/>
      </g>
     </g>
    </g>
    <g id="xtick_11">
     <g id="line2d_11">
      <g>
       <use xlink:href="#md00c3232dd" x="398.688825" y="307.584" style="stroke: #000000; stroke-width: 0.8"/>
      </g>
     </g>
     <g id="text_11">
      <!-- 50 -->
      <g transform="translate(393.688825 321.419937) scale(0.1 -0.1)">
       <use xlink:href="#SimHei-35"/>
       <use xlink:href="#SimHei-30" x="50"/>
      </g>
     </g>
    </g>
    <g id="text_12">
     <!-- Number of oracle nodes -->
     <g transform="translate(181.16 333.544937) scale(0.1 -0.1)">
      <defs>
       <path id="SimHei-4e" d="M 2875 100 
L 2250 100 
L 875 3200 
L 850 3200 
L 850 100 
L 275 100 
L 275 4375 
L 900 4375 
L 2275 1275 
L 2300 1275 
L 2300 4375 
L 2875 4375 
L 2875 100 
z
" transform="scale(0.015625)"/>
       <path id="SimHei-75" d="M 2825 100 
L 2325 100 
L 2325 625 
Q 2125 350 1887 200 
Q 1650 50 1275 50 
Q 825 50 600 300 
Q 375 550 375 925 
L 375 2900 
L 875 2900 
L 875 1100 
Q 875 800 1025 625 
Q 1175 450 1425 450 
Q 1750 450 2037 787 
Q 2325 1125 2325 1625 
L 2325 2900 
L 2825 2900 
L 2825 100 
z
" transform="scale(0.015625)"/>
       <path id="SimHei-6d" d="M 3075 100 
L 2575 100 
L 2575 2125 
Q 2575 2275 2525 2375 
Q 2475 2475 2325 2475 
Q 2150 2475 2000 2287 
Q 1850 2100 1850 1800 
L 1850 100 
L 1350 100 
L 1350 2125 
Q 1350 2275 1300 2375 
Q 1250 2475 1100 2475 
Q 925 2475 775 2287 
Q 625 2100 625 1800 
L 625 100 
L 125 100 
L 125 2900 
L 625 2900 
L 625 2525 
Q 750 2725 925 2837 
Q 1100 2950 1300 2950 
Q 1500 2950 1637 2837 
Q 1775 2725 1825 2525 
Q 1950 2725 2112 2837 
Q 2275 2950 2475 2950 
Q 2775 2950 2925 2787 
Q 3075 2625 3075 2325 
L 3075 100 
z
" transform="scale(0.015625)"/>
       <path id="SimHei-62" d="M 2850 1500 
Q 2850 775 2500 412 
Q 2150 50 1650 50 
Q 1375 50 1175 150 
Q 975 250 825 475 
L 825 100 
L 325 100 
L 325 4375 
L 825 4375 
L 825 2525 
Q 975 2750 1175 2862 
Q 1375 2975 1650 2975 
Q 2150 2975 2500 2600 
Q 2850 2225 2850 1500 
z
M 2300 1500 
Q 2300 1975 2112 2250 
Q 1925 2525 1550 2525 
Q 1250 2525 1037 2250 
Q 825 1975 825 1500 
Q 825 1025 1037 762 
Q 1250 500 1550 500 
Q 1925 500 2112 762 
Q 2300 1025 2300 1500 
z
" transform="scale(0.015625)"/>
       <path id="SimHei-65" d="M 2875 1050 
Q 2825 600 2475 325 
Q 2125 50 1650 50 
Q 1050 50 662 437 
Q 275 825 275 1500 
Q 275 2175 662 2562 
Q 1050 2950 1650 2950 
Q 2175 2950 2512 2612 
Q 2850 2275 2850 1500 
L 825 1500 
Q 825 950 1062 725 
Q 1300 500 1650 500 
Q 1925 500 2100 637 
Q 2275 775 2325 1050 
L 2875 1050 
z
M 2275 1900 
Q 2225 2250 2050 2387 
Q 1875 2525 1600 2525 
Q 1350 2525 1150 2387 
Q 950 2250 850 1900 
L 2275 1900 
z
" transform="scale(0.015625)"/>
       <path id="SimHei-72" d="M 2525 2400 
Q 2050 2475 1725 2262 
Q 1400 2050 1175 1525 
L 1175 100 
L 675 100 
L 675 2900 
L 1175 2900 
L 1175 2175 
Q 1400 2575 1737 2762 
Q 2075 2950 2525 2950 
L 2525 2400 
z
" transform="scale(0.015625)"/>
       <path id="SimHei-20" transform="scale(0.015625)"/>
       <path id="SimHei-6f" d="M 2950 1500 
Q 2950 850 2550 450 
Q 2150 50 1600 50 
Q 1050 50 650 450 
Q 250 850 250 1500 
Q 250 2150 650 2550 
Q 1050 2950 1600 2950 
Q 2150 2950 2550 2550 
Q 2950 2150 2950 1500 
z
M 2400 1500 
Q 2400 2000 2150 2250 
Q 1900 2500 1600 2500 
Q 1300 2500 1050 2250 
Q 800 2000 800 1500 
Q 800 1000 1050 750 
Q 1300 500 1600 500 
Q 1900 500 2150 750 
Q 2400 1000 2400 1500 
z
" transform="scale(0.015625)"/>
       <path id="SimHei-66" d="M 2875 3800 
Q 2750 3875 2575 3925 
Q 2400 3975 2125 3975 
Q 1850 3975 1750 3837 
Q 1650 3700 1650 3500 
L 1650 2900 
L 2675 2900 
L 2675 2500 
L 1650 2500 
L 1650 100 
L 1150 100 
L 1150 2500 
L 300 2500 
L 300 2900 
L 1150 2900 
L 1150 3475 
Q 1150 3925 1425 4175 
Q 1700 4425 2150 4425 
Q 2425 4425 2587 4387 
Q 2750 4350 2875 4300 
L 2875 3800 
z
" transform="scale(0.015625)"/>
       <path id="SimHei-61" d="M 2900 100 
L 2300 100 
Q 2250 150 2225 237 
Q 2200 325 2200 450 
Q 2025 250 1775 150 
Q 1525 50 1250 50 
Q 850 50 575 250 
Q 300 450 300 825 
Q 300 1200 550 1425 
Q 800 1650 1325 1725 
Q 1675 1775 1937 1850 
Q 2200 1925 2200 2050 
Q 2200 2200 2087 2350 
Q 1975 2500 1600 2500 
Q 1300 2500 1162 2387 
Q 1025 2275 975 2075 
L 425 2075 
Q 475 2475 787 2712 
Q 1100 2950 1600 2950 
Q 2150 2950 2425 2700 
Q 2700 2450 2700 2000 
L 2700 625 
Q 2700 475 2750 350 
Q 2800 225 2900 100 
z
M 2200 1025 
L 2200 1525 
Q 2050 1475 1912 1437 
Q 1775 1400 1450 1350 
Q 1075 1300 962 1175 
Q 850 1050 850 875 
Q 850 725 962 612 
Q 1075 500 1300 500 
Q 1525 500 1787 625 
Q 2050 750 2200 1025 
z
" transform="scale(0.015625)"/>
       <path id="SimHei-63" d="M 2875 1225 
Q 2875 700 2512 375 
Q 2150 50 1600 50 
Q 1050 50 650 437 
Q 250 825 250 1500 
Q 250 2175 650 2562 
Q 1050 2950 1600 2950 
Q 2150 2950 2475 2662 
Q 2800 2375 2800 1975 
L 2250 1975 
Q 2225 2275 2037 2387 
Q 1850 2500 1600 2500 
Q 1300 2500 1050 2262 
Q 800 2025 800 1500 
Q 800 975 1050 737 
Q 1300 500 1600 500 
Q 1925 500 2125 675 
Q 2325 850 2325 1225 
L 2875 1225 
z
" transform="scale(0.015625)"/>
       <path id="SimHei-6c" d="M 1850 100 
L 1350 100 
L 1350 4375 
L 1850 4375 
L 1850 100 
z
" transform="scale(0.015625)"/>
       <path id="SimHei-6e" d="M 2825 100 
L 2325 100 
L 2325 1900 
Q 2325 2200 2175 2375 
Q 2025 2550 1775 2550 
Q 1450 2550 1162 2212 
Q 875 1875 875 1375 
L 875 100 
L 375 100 
L 375 2900 
L 875 2900 
L 875 2375 
Q 1075 2650 1312 2800 
Q 1550 2950 1925 2950 
Q 2375 2950 2600 2700 
Q 2825 2450 2825 2075 
L 2825 100 
z
" transform="scale(0.015625)"/>
       <path id="SimHei-64" d="M 2775 100 
L 2275 100 
L 2275 475 
Q 2125 250 1925 150 
Q 1725 50 1450 50 
Q 950 50 600 412 
Q 250 775 250 1500 
Q 250 2225 600 2600 
Q 950 2975 1450 2975 
Q 1725 2975 1925 2862 
Q 2125 2750 2275 2525 
L 2275 4375 
L 2775 4375 
L 2775 100 
z
M 2275 1500 
Q 2275 1975 2062 2250 
Q 1850 2525 1550 2525 
Q 1175 2525 987 2250 
Q 800 1975 800 1500 
Q 800 1025 987 762 
Q 1175 500 1550 500 
Q 1850 500 2062 762 
Q 2275 1025 2275 1500 
z
" transform="scale(0.015625)"/>
       <path id="SimHei-73" d="M 2775 875 
Q 2775 475 2462 262 
Q 2150 50 1675 50 
Q 1075 50 750 287 
Q 425 525 425 975 
L 925 975 
Q 925 675 1137 575 
Q 1350 475 1650 475 
Q 1950 475 2100 587 
Q 2250 700 2250 875 
Q 2250 1000 2125 1125 
Q 2000 1250 1500 1325 
Q 925 1400 712 1612 
Q 500 1825 500 2175 
Q 500 2475 787 2712 
Q 1075 2950 1625 2950 
Q 2125 2950 2412 2725 
Q 2700 2500 2700 2125 
L 2200 2125 
Q 2200 2350 2037 2437 
Q 1875 2525 1625 2525 
Q 1300 2525 1162 2412 
Q 1025 2300 1025 2150 
Q 1025 1975 1150 1875 
Q 1275 1775 1675 1725 
Q 2325 1625 2550 1412 
Q 2775 1200 2775 875 
z
" transform="scale(0.015625)"/>
      </defs>
      <use xlink:href="#SimHei-4e"/>
      <use xlink:href="#SimHei-75" x="50"/>
      <use xlink:href="#SimHei-6d" x="100"/>
      <use xlink:href="#SimHei-62" x="150"/>
      <use xlink:href="#SimHei-65" x="200"/>
      <use xlink:href="#SimHei-72" x="250"/>
      <use xlink:href="#SimHei-20" x="300"/>
      <use xlink:href="#SimHei-6f" x="350"/>
      <use xlink:href="#SimHei-66" x="400"/>
      <use xlink:href="#SimHei-20" x="450"/>
      <use xlink:href="#SimHei-6f" x="500"/>
      <use xlink:href="#SimHei-72" x="550"/>
      <use xlink:href="#SimHei-61" x="600"/>
      <use xlink:href="#SimHei-63" x="650"/>
      <use xlink:href="#SimHei-6c" x="700"/>
      <use xlink:href="#SimHei-65" x="750"/>
      <use xlink:href="#SimHei-20" x="800"/>
      <use xlink:href="#SimHei-6e" x="850"/>
      <use xlink:href="#SimHei-6f" x="900"/>
      <use xlink:href="#SimHei-64" x="950"/>
      <use xlink:href="#SimHei-65" x="1000"/>
      <use xlink:href="#SimHei-73" x="1050"/>
     </g>
    </g>
   </g>
   <g id="matplotlib.axis_2">
    <g id="ytick_1">
     <g id="line2d_12">
      <defs>
       <path id="m136aca1d55" d="M 0 0 
L -3.5 0 
" style="stroke: #000000; stroke-width: 0.8"/>
      </defs>
      <g>
       <use xlink:href="#m136aca1d55" x="57.6" y="303.65131" style="stroke: #000000; stroke-width: 0.8"/>
      </g>
     </g>
     <g id="text_13">
      <!-- 0.0 -->
      <g transform="translate(35.6 307.069279) scale(0.1 -0.1)">
       <defs>
        <path id="SimHei-2e" d="M 1100 100 
L 525 100 
L 525 650 
L 1100 650 
L 1100 100 
z
" transform="scale(0.015625)"/>
       </defs>
       <use xlink:href="#SimHei-30"/>
       <use xlink:href="#SimHei-2e" x="50"/>
       <use xlink:href="#SimHei-30" x="100"/>
      </g>
     </g>
    </g>
    <g id="ytick_2">
     <g id="line2d_13">
      <g>
       <use xlink:href="#m136aca1d55" x="57.6" y="289.852399" style="stroke: #000000; stroke-width: 0.8"/>
      </g>
     </g>
     <g id="text_14">
      <!-- 0.1 -->
      <g transform="translate(35.6 293.270368) scale(0.1 -0.1)">
       <use xlink:href="#SimHei-30"/>
       <use xlink:href="#SimHei-2e" x="50"/>
       <use xlink:href="#SimHei-31" x="100"/>
      </g>
     </g>
    </g>
    <g id="ytick_3">
     <g id="line2d_14">
      <g>
       <use xlink:href="#m136aca1d55" x="57.6" y="276.053488" style="stroke: #000000; stroke-width: 0.8"/>
      </g>
     </g>
     <g id="text_15">
      <!-- 0.2 -->
      <g transform="translate(35.6 279.471457) scale(0.1 -0.1)">
       <use xlink:href="#SimHei-30"/>
       <use xlink:href="#SimHei-2e" x="50"/>
       <use xlink:href="#SimHei-32" x="100"/>
      </g>
     </g>
    </g>
    <g id="ytick_4">
     <g id="line2d_15">
      <g>
       <use xlink:href="#m136aca1d55" x="57.6" y="262.254577" style="stroke: #000000; stroke-width: 0.8"/>
      </g>
     </g>
     <g id="text_16">
      <!-- 0.3 -->
      <g transform="translate(35.6 265.672546) scale(0.1 -0.1)">
       <use xlink:href="#SimHei-30"/>
       <use xlink:href="#SimHei-2e" x="50"/>
       <use xlink:href="#SimHei-33" x="100"/>
      </g>
     </g>
    </g>
    <g id="ytick_5">
     <g id="line2d_16">
      <g>
       <use xlink:href="#m136aca1d55" x="57.6" y="248.455666" style="stroke: #000000; stroke-width: 0.8"/>
      </g>
     </g>
     <g id="text_17">
      <!-- 0.4 -->
      <g transform="translate(35.6 251.873635) scale(0.1 -0.1)">
       <use xlink:href="#SimHei-30"/>
       <use xlink:href="#SimHei-2e" x="50"/>
       <use xlink:href="#SimHei-34" x="100"/>
      </g>
     </g>
    </g>
    <g id="ytick_6">
     <g id="line2d_17">
      <g>
       <use xlink:href="#m136aca1d55" x="57.6" y="234.656755" style="stroke: #000000; stroke-width: 0.8"/>
      </g>
     </g>
     <g id="text_18">
      <!-- 0.5 -->
      <g transform="translate(35.6 238.074724) scale(0.1 -0.1)">
       <use xlink:href="#SimHei-30"/>
       <use xlink:href="#SimHei-2e" x="50"/>
       <use xlink:href="#SimHei-35" x="100"/>
      </g>
     </g>
    </g>
    <g id="ytick_7">
     <g id="line2d_18">
      <g>
       <use xlink:href="#m136aca1d55" x="57.6" y="220.857844" style="stroke: #000000; stroke-width: 0.8"/>
      </g>
     </g>
     <g id="text_19">
      <!-- 0.6 -->
      <g transform="translate(35.6 224.275813) scale(0.1 -0.1)">
       <defs>
        <path id="SimHei-36" d="M 2850 1550 
Q 2850 850 2550 450 
Q 2250 50 1650 50 
Q 1050 50 700 550 
Q 350 1050 350 2175 
Q 350 3200 712 3812 
Q 1075 4425 1750 4425 
Q 2225 4425 2512 4075 
Q 2800 3725 2800 3300 
L 2225 3300 
Q 2225 3550 2087 3750 
Q 1950 3950 1725 3950 
Q 1350 3950 1150 3562 
Q 950 3175 925 2375 
Q 1100 2700 1300 2825 
Q 1500 2950 1775 2950 
Q 2250 2950 2550 2575 
Q 2850 2200 2850 1550 
z
M 2250 1550 
Q 2250 2000 2100 2250 
Q 1950 2500 1675 2500 
Q 1350 2500 1162 2250 
Q 975 2000 975 1650 
Q 975 1100 1162 800 
Q 1350 500 1675 500 
Q 1900 500 2075 725 
Q 2250 950 2250 1550 
z
" transform="scale(0.015625)"/>
       </defs>
       <use xlink:href="#SimHei-30"/>
       <use xlink:href="#SimHei-2e" x="50"/>
       <use xlink:href="#SimHei-36" x="100"/>
      </g>
     </g>
    </g>
    <g id="ytick_8">
     <g id="line2d_19">
      <g>
       <use xlink:href="#m136aca1d55" x="57.6" y="207.058933" style="stroke: #000000; stroke-width: 0.8"/>
      </g>
     </g>
     <g id="text_20">
      <!-- 0.7 -->
      <g transform="translate(35.6 210.476902) scale(0.1 -0.1)">
       <defs>
        <path id="SimHei-37" d="M 2775 3850 
L 1600 100 
L 1025 100 
L 2225 3900 
L 400 3900 
L 400 4375 
L 2775 4375 
L 2775 3850 
z
" transform="scale(0.015625)"/>
       </defs>
       <use xlink:href="#SimHei-30"/>
       <use xlink:href="#SimHei-2e" x="50"/>
       <use xlink:href="#SimHei-37" x="100"/>
      </g>
     </g>
    </g>
    <g id="ytick_9">
     <g id="line2d_20">
      <g>
       <use xlink:href="#m136aca1d55" x="57.6" y="193.260022" style="stroke: #000000; stroke-width: 0.8"/>
      </g>
     </g>
     <g id="text_21">
      <!-- 0.8 -->
      <g transform="translate(35.6 196.677991) scale(0.1 -0.1)">
       <defs>
        <path id="SimHei-38" d="M 2875 1325 
Q 2875 700 2525 375 
Q 2175 50 1575 50 
Q 975 50 625 375 
Q 275 700 275 1325 
Q 275 1650 475 1912 
Q 675 2175 1025 2300 
Q 725 2425 562 2650 
Q 400 2875 400 3225 
Q 400 3775 750 4100 
Q 1100 4425 1575 4425 
Q 2050 4425 2400 4100 
Q 2750 3775 2750 3225 
Q 2750 2875 2587 2650 
Q 2425 2425 2125 2300 
Q 2475 2175 2675 1912 
Q 2875 1650 2875 1325 
z
M 2200 3225 
Q 2200 3625 2025 3800 
Q 1850 3975 1575 3975 
Q 1300 3975 1125 3800 
Q 950 3625 950 3225 
Q 950 2825 1137 2662 
Q 1325 2500 1575 2500 
Q 1825 2500 2012 2662 
Q 2200 2825 2200 3225 
z
M 2300 1325 
Q 2300 1675 2112 1875 
Q 1925 2075 1575 2075 
Q 1225 2075 1037 1875 
Q 850 1675 850 1325 
Q 850 925 1050 712 
Q 1250 500 1575 500 
Q 1900 500 2100 712 
Q 2300 925 2300 1325 
z
" transform="scale(0.015625)"/>
       </defs>
       <use xlink:href="#SimHei-30"/>
       <use xlink:href="#SimHei-2e" x="50"/>
       <use xlink:href="#SimHei-38" x="100"/>
      </g>
     </g>
    </g>
    <g id="ytick_10">
     <g id="line2d_21">
      <g>
       <use xlink:href="#m136aca1d55" x="57.6" y="179.461111" style="stroke: #000000; stroke-width: 0.8"/>
      </g>
     </g>
     <g id="text_22">
      <!-- 0.9 -->
      <g transform="translate(35.6 182.879079) scale(0.1 -0.1)">
       <defs>
        <path id="SimHei-39" d="M 2825 2300 
Q 2825 1275 2462 662 
Q 2100 50 1425 50 
Q 950 50 662 400 
Q 375 750 375 1175 
L 950 1175 
Q 950 925 1087 725 
Q 1225 525 1450 525 
Q 1825 525 2012 950 
Q 2200 1375 2250 2200 
Q 2125 1925 1900 1775 
Q 1675 1625 1400 1625 
Q 925 1625 625 1975 
Q 325 2325 325 2975 
Q 325 3625 625 4025 
Q 925 4425 1525 4425 
Q 2125 4425 2475 3925 
Q 2825 3425 2825 2300 
z
M 2200 2875 
Q 2200 3425 2012 3700 
Q 1825 3975 1500 3975 
Q 1275 3975 1100 3762 
Q 925 3550 925 2975 
Q 925 2550 1062 2312 
Q 1200 2075 1500 2075 
Q 1825 2075 2012 2300 
Q 2200 2525 2200 2875 
z
" transform="scale(0.015625)"/>
       </defs>
       <use xlink:href="#SimHei-30"/>
       <use xlink:href="#SimHei-2e" x="50"/>
       <use xlink:href="#SimHei-39" x="100"/>
      </g>
     </g>
    </g>
    <g id="ytick_11">
     <g id="line2d_22">
      <g>
       <use xlink:href="#m136aca1d55" x="57.6" y="165.6622" style="stroke: #000000; stroke-width: 0.8"/>
      </g>
     </g>
     <g id="text_23">
      <!-- 1.0 -->
      <g transform="translate(35.6 169.080168) scale(0.1 -0.1)">
       <use xlink:href="#SimHei-31"/>
       <use xlink:href="#SimHei-2e" x="50"/>
       <use xlink:href="#SimHei-30" x="100"/>
      </g>
     </g>
    </g>
    <g id="ytick_12">
     <g id="line2d_23">
      <g>
       <use xlink:href="#m136aca1d55" x="57.6" y="151.863289" style="stroke: #000000; stroke-width: 0.8"/>
      </g>
     </g>
     <g id="text_24">
      <!-- 1.1 -->
      <g transform="translate(35.6 155.281257) scale(0.1 -0.1)">
       <use xlink:href="#SimHei-31"/>
       <use xlink:href="#SimHei-2e" x="50"/>
       <use xlink:href="#SimHei-31" x="100"/>
      </g>
     </g>
    </g>
    <g id="ytick_13">
     <g id="line2d_24">
      <g>
       <use xlink:href="#m136aca1d55" x="57.6" y="138.064377" style="stroke: #000000; stroke-width: 0.8"/>
      </g>
     </g>
     <g id="text_25">
      <!-- 1.2 -->
      <g transform="translate(35.6 141.482346) scale(0.1 -0.1)">
       <use xlink:href="#SimHei-31"/>
       <use xlink:href="#SimHei-2e" x="50"/>
       <use xlink:href="#SimHei-32" x="100"/>
      </g>
     </g>
    </g>
    <g id="ytick_14">
     <g id="line2d_25">
      <g>
       <use xlink:href="#m136aca1d55" x="57.6" y="124.265466" style="stroke: #000000; stroke-width: 0.8"/>
      </g>
     </g>
     <g id="text_26">
      <!-- 1.3 -->
      <g transform="translate(35.6 127.683435) scale(0.1 -0.1)">
       <use xlink:href="#SimHei-31"/>
       <use xlink:href="#SimHei-2e" x="50"/>
       <use xlink:href="#SimHei-33" x="100"/>
      </g>
     </g>
    </g>
    <g id="ytick_15">
     <g id="line2d_26">
      <g>
       <use xlink:href="#m136aca1d55" x="57.6" y="110.466555" style="stroke: #000000; stroke-width: 0.8"/>
      </g>
     </g>
     <g id="text_27">
      <!-- 1.4 -->
      <g transform="translate(35.6 113.884524) scale(0.1 -0.1)">
       <use xlink:href="#SimHei-31"/>
       <use xlink:href="#SimHei-2e" x="50"/>
       <use xlink:href="#SimHei-34" x="100"/>
      </g>
     </g>
    </g>
    <g id="ytick_16">
     <g id="line2d_27">
      <g>
       <use xlink:href="#m136aca1d55" x="57.6" y="96.667644" style="stroke: #000000; stroke-width: 0.8"/>
      </g>
     </g>
     <g id="text_28">
      <!-- 1.5 -->
      <g transform="translate(35.6 100.085613) scale(0.1 -0.1)">
       <use xlink:href="#SimHei-31"/>
       <use xlink:href="#SimHei-2e" x="50"/>
       <use xlink:href="#SimHei-35" x="100"/>
      </g>
     </g>
    </g>
    <g id="ytick_17">
     <g id="line2d_28">
      <g>
       <use xlink:href="#m136aca1d55" x="57.6" y="82.868733" style="stroke: #000000; stroke-width: 0.8"/>
      </g>
     </g>
     <g id="text_29">
      <!-- 1.6 -->
      <g transform="translate(35.6 86.286702) scale(0.1 -0.1)">
       <use xlink:href="#SimHei-31"/>
       <use xlink:href="#SimHei-2e" x="50"/>
       <use xlink:href="#SimHei-36" x="100"/>
      </g>
     </g>
    </g>
    <g id="ytick_18">
     <g id="line2d_29">
      <g>
       <use xlink:href="#m136aca1d55" x="57.6" y="69.069822" style="stroke: #000000; stroke-width: 0.8"/>
      </g>
     </g>
     <g id="text_30">
      <!-- 1.7 -->
      <g transform="translate(35.6 72.487791) scale(0.1 -0.1)">
       <use xlink:href="#SimHei-31"/>
       <use xlink:href="#SimHei-2e" x="50"/>
       <use xlink:href="#SimHei-37" x="100"/>
      </g>
     </g>
    </g>
    <g id="ytick_19">
     <g id="line2d_30">
      <g>
       <use xlink:href="#m136aca1d55" x="57.6" y="55.270911" style="stroke: #000000; stroke-width: 0.8"/>
      </g>
     </g>
     <g id="text_31">
      <!-- 1.8 -->
      <g transform="translate(35.6 58.68888) scale(0.1 -0.1)">
       <use xlink:href="#SimHei-31"/>
       <use xlink:href="#SimHei-2e" x="50"/>
       <use xlink:href="#SimHei-38" x="100"/>
      </g>
     </g>
    </g>
    <g id="ytick_20">
     <g id="line2d_31">
      <g>
       <use xlink:href="#m136aca1d55" x="57.6" y="41.472" style="stroke: #000000; stroke-width: 0.8"/>
      </g>
     </g>
     <g id="text_32">
      <!-- 1.9 -->
      <g transform="translate(35.6 44.889969) scale(0.1 -0.1)">
       <use xlink:href="#SimHei-31"/>
       <use xlink:href="#SimHei-2e" x="50"/>
       <use xlink:href="#SimHei-39" x="100"/>
      </g>
     </g>
    </g>
    <g id="text_33">
     <!-- Time consumption/s -->
     <g transform="translate(30.310937 219.528) rotate(-90) scale(0.1 -0.1)">
      <defs>
       <path id="SimHei-54" d="M 2875 3900 
L 1875 3900 
L 1875 100 
L 1300 100 
L 1300 3900 
L 300 3900 
L 300 4375 
L 2875 4375 
L 2875 3900 
z
" transform="scale(0.015625)"/>
       <path id="SimHei-69" d="M 1825 3700 
L 1325 3700 
L 1325 4350 
L 1825 4350 
L 1825 3700 
z
M 1825 100 
L 1325 100 
L 1325 2900 
L 1825 2900 
L 1825 100 
z
" transform="scale(0.015625)"/>
       <path id="SimHei-70" d="M 2850 1500 
Q 2850 775 2500 400 
Q 2150 25 1650 25 
Q 1375 25 1175 137 
Q 975 250 825 475 
L 825 -825 
L 325 -825 
L 325 2900 
L 825 2900 
L 825 2525 
Q 975 2750 1175 2850 
Q 1375 2950 1650 2950 
Q 2150 2950 2500 2587 
Q 2850 2225 2850 1500 
z
M 2300 1500 
Q 2300 1975 2112 2237 
Q 1925 2500 1550 2500 
Q 1250 2500 1037 2237 
Q 825 1975 825 1500 
Q 825 1025 1037 750 
Q 1250 475 1550 475 
Q 1925 475 2112 750 
Q 2300 1025 2300 1500 
z
" transform="scale(0.015625)"/>
       <path id="SimHei-74" d="M 2775 175 
Q 2650 125 2487 87 
Q 2325 50 2050 50 
Q 1600 50 1325 300 
Q 1050 550 1050 1000 
L 1050 2500 
L 200 2500 
L 200 2900 
L 1050 2900 
L 1050 3875 
L 1550 3875 
L 1550 2900 
L 2575 2900 
L 2575 2500 
L 1550 2500 
L 1550 975 
Q 1550 775 1650 637 
Q 1750 500 2025 500 
Q 2300 500 2475 550 
Q 2650 600 2775 675 
L 2775 175 
z
" transform="scale(0.015625)"/>
       <path id="SimHei-2f" d="M 3025 4525 
L 375 -200 
L 125 -50 
L 2775 4675 
L 3025 4525 
z
" transform="scale(0.015625)"/>
      </defs>
      <use xlink:href="#SimHei-54"/>
      <use xlink:href="#SimHei-69" x="50"/>
      <use xlink:href="#SimHei-6d" x="100"/>
      <use xlink:href="#SimHei-65" x="150"/>
      <use xlink:href="#SimHei-20" x="200"/>
      <use xlink:href="#SimHei-63" x="250"/>
      <use xlink:href="#SimHei-6f" x="300"/>
      <use xlink:href="#SimHei-6e" x="350"/>
      <use xlink:href="#SimHei-73" x="400"/>
      <use xlink:href="#SimHei-75" x="450"/>
      <use xlink:href="#SimHei-6d" x="500"/>
      <use xlink:href="#SimHei-70" x="550"/>
      <use xlink:href="#SimHei-74" x="600"/>
      <use xlink:href="#SimHei-69" x="650"/>
      <use xlink:href="#SimHei-6f" x="700"/>
      <use xlink:href="#SimHei-6e" x="750"/>
      <use xlink:href="#SimHei-2f" x="800"/>
      <use xlink:href="#SimHei-73" x="850"/>
     </g>
    </g>
   </g>
   <g id="line2d_32">
    <path d="M 78.06533 293.716094 
L 84.887106 290.404356 
L 91.708883 287.092617 
L 98.530659 283.780878 
L 105.352436 280.46914 
L 112.174212 277.157401 
L 118.995989 273.845662 
L 125.817765 270.533924 
L 132.639542 267.222185 
L 139.461318 263.910446 
L 146.283095 260.598708 
L 153.104871 257.286969 
L 159.926648 253.97523 
L 166.748424 250.663492 
L 173.570201 247.351753 
L 180.391977 244.040015 
L 187.213754 240.728276 
L 194.03553 237.416537 
L 200.857307 234.104799 
L 207.679083 230.79306 
L 214.50086 227.481321 
L 221.322636 224.169583 
L 228.144413 220.857844 
L 234.966189 217.546105 
L 241.787966 214.234367 
L 248.609742 210.922628 
L 255.431519 207.610889 
L 262.253295 204.299151 
L 269.075072 200.987412 
L 275.896848 197.675673 
L 282.718625 194.363935 
L 289.540401 191.052196 
L 296.362178 187.740457 
L 303.183954 184.428719 
L 310.005731 181.11698 
L 316.827507 177.805241 
L 323.649284 174.493503 
L 330.47106 171.181764 
L 337.292837 167.870025 
L 344.114613 164.558287 
L 350.93639 161.246548 
L 357.758166 157.934809 
L 364.579943 154.623071 
L 371.401719 151.311332 
L 378.223496 147.999593 
L 385.045272 144.687855 
L 391.867049 141.376116 
L 398.688825 138.064377 
" clip-path="url(#pb4fc869e65)" style="fill: none; stroke: #0000ff; stroke-width: 1.5; stroke-linecap: square"/>
   </g>
   <g id="line2d_33">
    <path d="M 78.06533 299.511637 
L 84.887106 298.131746 
L 91.708883 296.751855 
L 98.530659 295.371964 
L 105.352436 293.992073 
L 112.174212 292.612181 
L 118.995989 291.23229 
L 125.817765 289.852399 
L 132.639542 288.472508 
L 139.461318 287.092617 
L 146.283095 285.712726 
L 153.104871 284.332835 
L 159.926648 282.952944 
L 166.748424 281.573053 
L 173.570201 280.193162 
L 180.391977 278.81327 
L 187.213754 277.433379 
L 194.03553 276.053488 
L 200.857307 274.673597 
L 207.679083 273.293706 
L 214.50086 271.913815 
L 221.322636 270.533924 
L 228.144413 269.154033 
L 234.966189 267.774142 
L 241.787966 266.39425 
L 248.609742 265.014359 
L 255.431519 263.634468 
L 262.253295 262.254577 
L 269.075072 260.874686 
L 275.896848 259.494795 
L 282.718625 258.114904 
L 289.540401 256.735013 
L 296.362178 255.355122 
L 303.183954 253.97523 
L 310.005731 252.595339 
L 316.827507 251.215448 
L 323.649284 249.835557 
L 330.47106 248.455666 
L 337.292837 247.075775 
L 344.114613 245.695884 
L 350.93639 244.315993 
L 357.758166 242.936102 
L 364.579943 241.556211 
L 371.401719 240.176319 
L 378.223496 238.796428 
L 385.045272 237.416537 
L 391.867049 236.036646 
L 398.688825 234.656755 
" clip-path="url(#pb4fc869e65)" style="fill: none; stroke: #ff0000; stroke-width: 1.5; stroke-linecap: square"/>
   </g>
   <g id="patch_3">
    <path d="M 57.6 307.584 
L 57.6 41.472 
" style="fill: none; stroke: #000000; stroke-width: 0.8; stroke-linejoin: miter; stroke-linecap: square"/>
   </g>
   <g id="patch_4">
    <path d="M 414.72 307.584 
L 414.72 41.472 
" style="fill: none; stroke: #000000; stroke-width: 0.8; stroke-linejoin: miter; stroke-linecap: square"/>
   </g>
   <g id="patch_5">
    <path d="M 57.6 307.584 
L 414.72 307.584 
" style="fill: none; stroke: #000000; stroke-width: 0.8; stroke-linejoin: miter; stroke-linecap: square"/>
   </g>
   <g id="patch_6">
    <path d="M 57.6 41.472 
L 414.72 41.472 
" style="fill: none; stroke: #000000; stroke-width: 0.8; stroke-linejoin: miter; stroke-linecap: square"/>
   </g>
   <g id="legend_1">
    <g id="patch_7">
     <path d="M 340.72 76.050125 
L 407.72 76.050125 
Q 409.72 76.050125 409.72 74.050125 
L 409.72 48.472 
Q 409.72 46.472 407.72 46.472 
L 340.72 46.472 
Q 338.72 46.472 338.72 48.472 
L 338.72 74.050125 
Q 338.72 76.050125 340.72 76.050125 
z
" style="fill: #ffffff; opacity: 0.8; stroke: #cccccc; stroke-linejoin: miter"/>
    </g>
    <g id="line2d_34">
     <path d="M 342.72 53.972 
L 352.72 53.972 
L 362.72 53.972 
" style="fill: none; stroke: #0000ff; stroke-width: 1.5; stroke-linecap: square"/>
    </g>
    <g id="text_34">
     <!-- Schnorr -->
     <g transform="translate(370.72 57.472) scale(0.1 -0.1)">
      <defs>
       <path id="SimHei-53" d="M 2925 1300 
Q 2925 725 2562 387 
Q 2200 50 1575 50 
Q 950 50 600 400 
Q 250 750 250 1275 
L 250 1450 
L 825 1450 
L 825 1300 
Q 825 925 1050 725 
Q 1275 525 1575 525 
Q 1975 525 2162 737 
Q 2350 950 2350 1250 
Q 2350 1500 2125 1712 
Q 1900 1925 1475 2100 
Q 875 2325 612 2600 
Q 350 2875 350 3250 
Q 350 3775 712 4100 
Q 1075 4425 1575 4425 
Q 2225 4425 2512 4037 
Q 2800 3650 2800 3200 
L 2225 3200 
Q 2250 3475 2075 3700 
Q 1900 3925 1575 3925 
Q 1275 3925 1100 3762 
Q 925 3600 925 3325 
Q 925 3100 1062 2937 
Q 1200 2775 1775 2550 
Q 2325 2325 2625 2012 
Q 2925 1700 2925 1300 
z
" transform="scale(0.015625)"/>
       <path id="SimHei-68" d="M 2825 100 
L 2325 100 
L 2325 1900 
Q 2325 2200 2175 2375 
Q 2025 2550 1775 2550 
Q 1450 2550 1162 2212 
Q 875 1875 875 1375 
L 875 100 
L 375 100 
L 375 4375 
L 875 4375 
L 875 2375 
Q 1075 2650 1312 2800 
Q 1550 2950 1925 2950 
Q 2375 2950 2600 2700 
Q 2825 2450 2825 2075 
L 2825 100 
z
" transform="scale(0.015625)"/>
      </defs>
      <use xlink:href="#SimHei-53"/>
      <use xlink:href="#SimHei-63" x="50"/>
      <use xlink:href="#SimHei-68" x="100"/>
      <use xlink:href="#SimHei-6e" x="150"/>
      <use xlink:href="#SimHei-6f" x="200"/>
      <use xlink:href="#SimHei-72" x="250"/>
      <use xlink:href="#SimHei-72" x="300"/>
     </g>
    </g>
    <g id="line2d_35">
     <path d="M 342.72 67.261063 
L 352.72 67.261063 
L 362.72 67.261063 
" style="fill: none; stroke: #ff0000; stroke-width: 1.5; stroke-linecap: square"/>
    </g>
    <g id="text_35">
     <!-- BLS -->
     <g transform="translate(370.72 70.761063) scale(0.1 -0.1)">
      <defs>
       <path id="SimHei-42" d="M 2975 1375 
Q 2975 650 2575 375 
Q 2175 100 1550 100 
L 300 100 
L 300 4375 
L 1600 4375 
Q 2225 4375 2537 4050 
Q 2850 3725 2850 3275 
Q 2850 2825 2637 2612 
Q 2425 2400 2200 2325 
Q 2500 2250 2737 2012 
Q 2975 1775 2975 1375 
z
M 2275 3275 
Q 2275 3600 2087 3750 
Q 1900 3900 1625 3900 
L 875 3900 
L 875 2575 
L 1600 2575 
Q 1875 2575 2075 2737 
Q 2275 2900 2275 3275 
z
M 2375 1375 
Q 2375 1775 2112 1937 
Q 1850 2100 1525 2100 
L 875 2100 
L 875 575 
L 1450 575 
Q 1900 575 2137 750 
Q 2375 925 2375 1375 
z
" transform="scale(0.015625)"/>
       <path id="SimHei-4c" d="M 2925 100 
L 325 100 
L 325 4375 
L 900 4375 
L 900 575 
L 2925 575 
L 2925 100 
z
" transform="scale(0.015625)"/>
      </defs>
      <use xlink:href="#SimHei-42"/>
      <use xlink:href="#SimHei-4c" x="50"/>
      <use xlink:href="#SimHei-53" x="100"/>
     </g>
    </g>
   </g>
  </g>
 </g>
 <defs>
  <clipPath id="pb4fc869e65">
   <rect x="57.6" y="41.472" width="357.12" height="266.112"/>
  </clipPath>
 </defs>
</svg>
